<svg width="100" height="39" viewBox="0 0 100 39" fill="none" xmlns="http://www.w3.org/2000/svg">
<path d="M61.4656 0.0312229C61.4656 2.06716 61.7906 5.13904 56.9844 6.87966C55.4969 7.41872 54.4922 8.38903 54.4922 8.38903C54.4922 3.54528 55.2297 1.79216 57.2109 0.754661C58.7344 -0.0437764 61.4656 0.0312229 61.4656 0.0312229ZM43.3719 5.58435L38.0219 26.3125L33.5719 9.34841C32.3703 4.34997 30.3203 1.7656 26.0047 1.7656C21.7281 1.7656 19.6516 4.29372 18.4375 9.34841L13.9875 26.3125L8.6375 5.58435C7.77031 1.40935 3.72813 -0.395339 0 0.073411L10.2453 38.8125C10.2453 38.8125 13.625 39.0562 15.3172 38.1937C17.5391 37.0609 18.5953 36.1875 19.9406 30.9172C21.1391 26.2187 24.4891 12.4156 24.8031 11.4328C25.5469 9.09841 26.5359 9.27497 27.2094 11.4328C27.5172 12.4172 30.8734 26.2187 32.0719 30.9172C33.4156 36.1875 34.4734 37.0609 36.6953 38.1937C38.3859 39.0562 41.7672 38.8125 41.7672 38.8125L52.0125 0.073411C48.1969 -0.406276 44.2281 1.46872 43.3719 5.58435ZM61.4625 6.39841C61.4625 6.39841 60.8219 7.38903 59.3594 8.20622C58.4203 8.73122 57.5187 9.08747 56.5516 9.55153C54.1859 10.6859 54.4922 11.7312 54.4922 15.0515V38.8125C54.4922 38.8125 57.0781 39.139 58.7687 38.2765C60.9453 37.1672 61.4453 36.0968 61.4656 31.2797V7.79997L61.4625 7.80153V6.39841V6.39841ZM87 19.5359L100 0.201535C100 0.201535 94.5141 -0.732839 91.7969 1.7406C89.7187 3.63122 87.9828 6.35779 83.3313 13.064C83.2578 13.1781 82.3547 14.7109 81.2891 13.064C76.7125 6.4656 74.9141 3.64372 72.8234 1.7406C70.1063 -0.732839 64.6203 0.201535 64.6203 0.201535L77.6203 19.5359L64.6562 38.8109C64.6562 38.8109 70.3703 39.5328 73.0859 37.0594C74.8812 35.425 75.8328 33.8765 81.2906 26.0093C82.3547 24.3656 83.2547 25.889 83.3328 26.0093C87.9266 32.6312 89.4625 35.0812 91.6359 37.0594C94.3531 39.5328 99.9672 38.8109 99.9672 38.8109L87 19.5359Z" fill="black"/>
</svg>
