<svg width="504" height="400" viewBox="0 0 504 400" fill="none" xmlns="http://www.w3.org/2000/svg">
<g clip-path="url(#clip0)">
<path d="M212.849 374.497C330.403 374.497 425.699 369.026 425.699 362.277C425.699 355.528 330.403 350.057 212.849 350.057C95.2959 350.057 0 355.528 0 362.277C0 369.026 95.2959 374.497 212.849 374.497Z" fill="#3F3D56"/>
<path d="M420.711 387.854C466.71 387.854 504 385.713 504 383.072C504 380.431 466.71 378.29 420.711 378.29C374.712 378.29 337.422 380.431 337.422 383.072C337.422 385.713 374.712 387.854 420.711 387.854Z" fill="#3F3D56"/>
<path d="M185.275 400C231.274 400 268.564 397.859 268.564 395.218C268.564 392.577 231.274 390.437 185.275 390.437C139.276 390.437 101.986 392.577 101.986 395.218C101.986 397.859 139.276 400 185.275 400Z" fill="#3F3D56"/>
<path d="M389.716 251.538L397.189 245.638L412.678 222.995C413.12 222.349 413.317 221.53 413.228 220.719C413.138 219.908 412.768 219.17 412.2 218.668V218.668C411.631 218.167 410.91 217.942 410.196 218.044C409.482 218.146 408.832 218.566 408.391 219.212L392.902 241.855L389.716 251.538Z" fill="#2F2E41"/>
<path d="M456.423 36.2819C456.423 36.2819 447.024 26.7117 434.385 44.7478C421.745 62.784 401.976 71.618 397.439 78.6116C397.439 78.6116 416.236 69.7776 422.718 66.0967C429.199 62.4159 428.875 63.1521 428.875 63.1521C428.875 63.1521 420.125 70.1457 418.504 77.1393C416.884 84.1328 418.18 90.0222 415.264 97.0158C412.347 104.009 471.007 101.801 471.007 101.801C471.007 101.801 476.84 90.3903 475.22 78.6116C473.599 66.8329 474.572 37.7542 456.423 36.2819Z" fill="#2F2E41"/>
<path d="M437.95 64.6245C437.95 64.6245 440.219 82.6606 430.496 86.7096C420.774 90.7585 424.339 96.2798 424.339 96.2798L438.922 104.378L454.479 98.8564L459.664 90.0223C459.664 90.0223 451.238 87.8138 453.506 81.1883C455.775 74.5628 456.423 72.3543 456.423 72.3543L437.95 64.6245Z" fill="#FFB9B9"/>
<path opacity="0.1" d="M437.95 64.6245C437.95 64.6245 440.219 82.6606 430.496 86.7096C420.774 90.7585 424.339 96.2798 424.339 96.2798L438.922 104.378L454.479 98.8564L459.664 90.0223C459.664 90.0223 451.238 87.8138 453.506 81.1883C455.775 74.5628 456.423 72.3543 456.423 72.3543L437.95 64.6245Z" fill="black"/>
<path d="M478.785 116.156C478.785 116.156 476.517 150.02 477.165 151.492C477.813 152.965 477.165 204.128 477.165 204.128C477.165 204.128 481.702 231.735 475.868 233.207C470.035 234.679 471.331 202.288 471.331 202.288L465.498 159.59L466.146 117.26L478.785 116.156Z" fill="#FFB9B9"/>
<path opacity="0.1" d="M478.785 116.156C478.785 116.156 476.517 150.02 477.165 151.492C477.813 152.965 477.165 204.128 477.165 204.128C477.165 204.128 481.702 231.735 475.868 233.207C470.035 234.679 471.331 202.288 471.331 202.288L465.498 159.59L466.146 117.26L478.785 116.156Z" fill="black"/>
<path d="M415.588 218.115C415.588 218.115 404.893 264.126 405.217 286.579C405.541 309.032 409.754 340.319 409.754 340.319C409.754 340.319 410.402 353.938 409.43 355.411C408.458 356.883 414.291 363.14 414.291 363.14L420.449 359.091L422.718 356.147V353.57C422.718 353.57 419.153 341.055 422.07 331.117C424.986 321.179 426.607 296.149 423.69 288.419L443.783 220.692L415.588 218.115Z" fill="#FFB9B9"/>
<path d="M414.94 357.251C414.94 357.251 411.051 351.73 408.458 353.57C405.865 355.411 401.652 367.926 401.652 367.926C401.652 367.926 387.068 383.753 397.439 384.489C407.81 385.225 412.347 381.177 413.643 378.232C414.94 375.287 426.931 367.557 426.931 367.557C426.931 367.557 425.635 353.57 423.69 353.202C421.746 352.834 418.829 358.723 418.829 358.723L414.94 357.251Z" fill="#2F2E41"/>
<path d="M450.913 221.06V266.703C450.951 272.241 451.276 277.771 451.886 283.266C452.858 291.364 446.376 351.73 446.376 351.73L447.024 362.404L455.127 361.668L456.099 352.466L467.766 311.977C467.766 311.977 471.655 287.315 469.711 278.113C467.766 268.911 479.757 210.018 479.757 210.018L450.913 221.06Z" fill="#FFB9B9"/>
<path d="M444.432 359.828L446.832 359.235C446.832 359.235 448.645 354.675 450.913 355.779C452.51 356.615 454.022 357.644 455.424 358.849L456.423 360.932C456.423 360.932 458.692 366.453 461.608 370.134C464.525 373.815 467.766 381.913 462.905 382.649C458.043 383.385 451.562 383.753 449.617 381.913C447.673 380.072 448.969 377.128 447.024 376.392C445.08 375.655 443.459 373.447 443.783 372.711C444.108 371.975 444.432 359.828 444.432 359.828Z" fill="#2F2E41"/>
<path d="M450.913 78.6115C459.505 78.6115 466.469 70.7012 466.469 60.9434C466.469 51.1856 459.505 43.2754 450.913 43.2754C442.322 43.2754 435.357 51.1856 435.357 60.9434C435.357 70.7012 442.322 78.6115 450.913 78.6115Z" fill="#FFB9B9"/>
<path d="M423.69 89.654L427.971 87.9565C427.971 87.9565 426.283 91.1263 435.357 92.9668C444.432 94.8072 453.829 95.4588 458.043 89.4277C458.043 89.4277 459.664 88.5498 461.933 91.1263C464.201 93.7029 465.498 92.9668 465.498 92.9668L463.877 102.537L460.636 120.205L456.423 133.456L444.432 130.511L431.468 119.837L426.607 105.482V92.2306L423.69 89.654Z" fill="#E35073"/>
<path d="M463.229 94.807L466.47 92.2304C466.47 92.2304 477.489 94.4389 478.137 100.328L469.711 118.732C471.429 123.853 471.313 129.535 469.386 134.56C466.146 143.026 466.47 144.866 466.47 144.866L464.201 155.909L423.042 159.59C423.042 159.59 421.421 155.173 420.773 154.437C420.125 153.7 420.125 151.124 420.773 151.124C421.421 151.124 420.773 150.02 420.125 148.915C419.477 147.811 419.153 147.443 420.125 145.971C421.097 144.498 418.505 131.247 418.505 131.247V116.892L407.486 100.328C407.486 100.328 411.375 93.7027 413.319 92.9665C415.264 92.2304 424.514 89.3271 424.514 89.3271L426.607 92.8274L429.524 119.469L433.737 135.664L451.476 132.241L458.367 119.101L462.905 103.641L463.229 94.807Z" fill="#E35073"/>
<path d="M475.544 98.1201L478.137 100.329C478.137 100.329 480.405 120.941 479.757 122.414C479.109 123.886 467.766 125.358 467.442 124.622C467.118 123.886 475.544 98.1201 475.544 98.1201Z" fill="#E35073"/>
<path d="M405.217 120.573C405.217 120.573 407.486 154.437 406.838 155.909C406.189 157.382 406.838 208.545 406.838 208.545C406.838 208.545 402.3 236.152 408.134 237.624C413.968 239.096 412.671 206.705 412.671 206.705L418.505 164.007L417.857 121.677L405.217 120.573Z" fill="#FFB9B9"/>
<path d="M422.07 87.8136L425.31 112.107C425.31 112.107 422.394 148.179 423.042 155.541L423.69 157.75C423.69 157.75 422.394 157.013 422.07 158.486C421.745 159.958 422.07 164.743 422.07 164.743C422.07 164.743 420.125 166.952 419.477 179.099C418.829 191.245 411.051 220.324 413.967 221.428C416.884 222.532 434.385 228.054 443.784 226.949C453.182 225.845 486.887 212.962 486.563 209.65C486.239 206.337 470.035 159.59 470.035 159.59C470.035 159.59 467.118 154.069 467.118 153.333C467.118 152.596 471.007 149.652 470.035 146.707C469.062 143.762 463.877 112.843 463.877 112.843L467.442 90.7583L462.581 89.286L459.016 110.635C459.016 110.635 445.08 118.365 430.496 111.371L427.255 86.3413L422.07 87.8136Z" fill="#2F2E41"/>
<path d="M410.079 99.2241L407.486 100.328C407.486 100.328 402.625 123.518 403.921 123.518C405.217 123.518 420.773 125.726 420.773 124.99C420.773 124.254 417.857 106.218 417.857 106.218L410.079 99.2241Z" fill="#E35073"/>
<path d="M438.598 45.4838C438.598 45.4838 462.581 64.2561 469.063 55.7901C475.544 47.3242 457.719 39.9625 457.719 39.9625L442.811 38.1221L438.598 45.4838Z" fill="#2F2E41"/>
<path d="M65.3108 0V359.163H337.103V0H65.3108ZM79.8126 329.41C78.8874 329.41 77.983 329.098 77.2137 328.515C76.4444 327.931 75.8448 327.101 75.4907 326.13C75.1366 325.159 75.044 324.091 75.2245 323.06C75.405 322.03 75.8505 321.083 76.5048 320.34C77.159 319.597 77.9925 319.091 78.9 318.886C79.8074 318.681 80.748 318.786 81.6028 319.188C82.4576 319.59 83.1882 320.271 83.7022 321.145C84.2163 322.019 84.4906 323.046 84.4906 324.097C84.4906 325.506 83.9978 326.857 83.1205 327.854C82.2432 328.85 81.0533 329.41 79.8126 329.41V329.41ZM79.8126 303.376C78.8874 303.376 77.983 303.064 77.2137 302.481C76.4444 301.897 75.8448 301.067 75.4907 300.096C75.1366 299.125 75.044 298.057 75.2245 297.026C75.405 295.996 75.8505 295.049 76.5048 294.306C77.159 293.563 77.9925 293.057 78.9 292.852C79.8074 292.647 80.748 292.752 81.6028 293.154C82.4576 293.556 83.1882 294.237 83.7022 295.111C84.2163 295.985 84.4906 297.012 84.4906 298.063C84.4906 299.472 83.9978 300.823 83.1205 301.82C82.2432 302.816 81.0533 303.376 79.8126 303.376ZM79.8126 277.873C78.8874 277.873 77.983 277.562 77.2137 276.978C76.4444 276.394 75.8448 275.564 75.4907 274.593C75.1366 273.623 75.044 272.554 75.2245 271.524C75.405 270.493 75.8505 269.546 76.5048 268.803C77.159 268.06 77.9925 267.554 78.9 267.349C79.8074 267.144 80.748 267.249 81.6028 267.652C82.4576 268.054 83.1882 268.735 83.7022 269.608C84.2163 270.482 84.4906 271.509 84.4906 272.56C84.4906 273.969 83.9978 275.321 83.1205 276.317C82.2432 277.313 81.0533 277.873 79.8126 277.873ZM79.8126 251.839C78.8874 251.839 77.983 251.528 77.2137 250.944C76.4444 250.36 75.8448 249.53 75.4907 248.559C75.1366 247.589 75.044 246.52 75.2245 245.49C75.405 244.459 75.8505 243.512 76.5048 242.769C77.159 242.026 77.9925 241.52 78.9 241.315C79.8074 241.11 80.748 241.215 81.6028 241.618C82.4576 242.02 83.1882 242.701 83.7022 243.574C84.2163 244.448 84.4906 245.475 84.4906 246.526C84.4906 247.935 83.9978 249.287 83.1205 250.283C82.2432 251.279 81.0533 251.839 79.8126 251.839ZM79.8126 225.805C78.8874 225.805 77.983 225.494 77.2137 224.91C76.4444 224.326 75.8448 223.496 75.4907 222.525C75.1366 221.555 75.044 220.486 75.2245 219.456C75.405 218.425 75.8505 217.478 76.5048 216.735C77.159 215.992 77.9925 215.486 78.9 215.281C79.8074 215.076 80.748 215.181 81.6028 215.583C82.4576 215.986 83.1882 216.667 83.7022 217.54C84.2163 218.414 84.4906 219.441 84.4906 220.492C84.4906 221.901 83.9978 223.253 83.1205 224.249C82.2432 225.245 81.0533 225.805 79.8126 225.805V225.805ZM79.8126 200.302C78.8874 200.302 77.983 199.991 77.2137 199.407C76.4444 198.823 75.8448 197.993 75.4907 197.023C75.1366 196.052 75.044 194.984 75.2245 193.953C75.405 192.922 75.8505 191.976 76.5048 191.233C77.159 190.489 77.9925 189.983 78.9 189.778C79.8074 189.573 80.748 189.679 81.6028 190.081C82.4576 190.483 83.1882 191.164 83.7022 192.038C84.2163 192.911 84.4906 193.939 84.4906 194.989C84.4906 196.399 83.9978 197.75 83.1205 198.746C82.2432 199.743 81.0533 200.302 79.8126 200.302V200.302ZM79.8126 174.268C78.8874 174.268 77.983 173.957 77.2137 173.373C76.4444 172.789 75.8448 171.959 75.4907 170.989C75.1366 170.018 75.044 168.95 75.2245 167.919C75.405 166.888 75.8505 165.942 76.5048 165.199C77.159 164.455 77.9925 163.949 78.9 163.744C79.8074 163.539 80.748 163.645 81.6028 164.047C82.4576 164.449 83.1882 165.13 83.7022 166.004C84.2163 166.877 84.4906 167.905 84.4906 168.955C84.4906 170.365 83.9978 171.716 83.1205 172.712C82.2432 173.709 81.0533 174.268 79.8126 174.268V174.268ZM79.8126 148.234C78.8874 148.234 77.983 147.923 77.2137 147.339C76.4444 146.755 75.8448 145.925 75.4907 144.955C75.1366 143.984 75.044 142.916 75.2245 141.885C75.405 140.854 75.8505 139.908 76.5048 139.164C77.159 138.421 77.9925 137.915 78.9 137.71C79.8074 137.505 80.748 137.611 81.6028 138.013C82.4576 138.415 83.1882 139.096 83.7022 139.97C84.2163 140.843 84.4906 141.871 84.4906 142.921C84.4906 144.331 83.9978 145.682 83.1205 146.678C82.2432 147.675 81.0533 148.234 79.8126 148.234V148.234ZM79.8126 122.732C78.8874 122.732 77.983 122.42 77.2137 121.836C76.4444 121.253 75.8448 120.423 75.4907 119.452C75.1366 118.481 75.044 117.413 75.2245 116.382C75.405 115.352 75.8505 114.405 76.5048 113.662C77.159 112.919 77.9925 112.413 78.9 112.208C79.8074 112.003 80.748 112.108 81.6028 112.51C82.4576 112.912 83.1882 113.593 83.7022 114.467C84.2163 115.341 84.4906 116.368 84.4906 117.419C84.4906 118.828 83.9978 120.179 83.1205 121.176C82.2432 122.172 81.0533 122.732 79.8126 122.732V122.732ZM79.8126 96.6978C78.8874 96.6978 77.983 96.3861 77.2137 95.8023C76.4444 95.2185 75.8448 94.3887 75.4907 93.4179C75.1366 92.4471 75.044 91.3788 75.2245 90.3482C75.405 89.3175 75.8505 88.3708 76.5048 87.6278C77.159 86.8847 77.9925 86.3787 78.9 86.1737C79.8074 85.9687 80.748 86.0739 81.6028 86.4761C82.4576 86.8782 83.1882 87.5592 83.7022 88.4329C84.2163 89.3066 84.4906 90.3339 84.4906 91.3847C84.4906 92.7938 83.9978 94.1452 83.1205 95.1416C82.2432 96.138 81.0533 96.6978 79.8126 96.6978ZM79.8126 70.6637C78.8874 70.6637 77.983 70.3521 77.2137 69.7683C76.4444 69.1845 75.8448 68.3547 75.4907 67.3839C75.1366 66.4131 75.044 65.3448 75.2245 64.3142C75.405 63.2835 75.8505 62.3368 76.5048 61.5938C77.159 60.8507 77.9925 60.3447 78.9 60.1397C79.8074 59.9347 80.748 60.0399 81.6028 60.442C82.4576 60.8442 83.1882 61.5252 83.7022 62.3989C84.2163 63.2726 84.4906 64.2999 84.4906 65.3507C84.4906 66.7598 83.9978 68.1112 83.1205 69.1076C82.2432 70.104 81.0533 70.6637 79.8126 70.6637V70.6637ZM79.8126 45.6923C78.8874 45.6923 77.983 45.3807 77.2137 44.7969C76.4444 44.2131 75.8448 43.3833 75.4907 42.4125C75.1366 41.4417 75.044 40.3734 75.2245 39.3428C75.405 38.3121 75.8505 37.3654 76.5048 36.6224C77.159 35.8793 77.9925 35.3733 78.9 35.1683C79.8074 34.9633 80.748 35.0685 81.6028 35.4707C82.4576 35.8728 83.1882 36.5538 83.7022 37.4275C84.2163 38.3012 84.4906 39.3285 84.4906 40.3793C84.4906 41.7884 83.9978 43.1398 83.1205 44.1362C82.2432 45.1326 81.0533 45.6923 79.8126 45.6923Z" fill="#F2F2F2"/>
<path opacity="0.3" d="M337.103 27.2762V26.2136H97.4754V0H96.5398V26.2136H65.3113V27.2762H96.5398V52.068H65.3113V53.1306H96.5398V77.9224H65.3113V78.9851H96.5398V103.776H65.3113V104.839H96.5398V129.63H65.3113V130.693H96.5398V155.485H65.3113V156.547H96.5398V181.339H65.3113V182.401H96.5398V207.193H65.3113V208.256H96.5398V233.047H65.3113V234.11H96.5398V258.901H65.3113V259.963H96.5398V284.755H65.3113V285.818H96.5398V310.609H65.3113V311.672H96.5398V336.463H65.3113V337.526H96.5398V359.163H97.4754V337.526H337.103V336.463H97.4754V311.672H337.103V310.609H97.4754V285.818H337.103V284.755H97.4754V259.963H337.103V258.901H97.4754V234.11H337.103V233.047H97.4754V208.256H337.103V207.193H97.4754V182.401H337.103V181.339H97.4754V156.547H337.103V155.485H97.4754V130.693H337.103V129.63H97.4754V104.839H337.103V103.776H97.4754V78.9851H337.103V77.9224H97.4754V53.1306H337.103V52.068H97.4754V27.2762H337.103Z" fill="#3F3D56"/>
<path d="M126.025 92.0109C123.199 94.4973 120.162 96.659 116.96 98.4643C114.891 99.6307 112.595 100.669 110.325 100.18C108.055 99.6906 106.017 97.0562 106.71 94.5532C106.951 93.8225 107.356 93.1764 107.886 92.6797C108.415 92.1831 109.051 91.8533 109.728 91.7236C111.09 91.4853 112.485 91.7138 113.732 92.3798C116.017 93.4914 117.924 95.4128 119.167 97.8568C119.801 99.1112 120.298 100.55 121.351 101.363C122.2 101.91 123.15 102.223 124.125 102.275C126.419 102.6 128.773 102.923 131.021 102.307C133.268 101.691 135.421 99.9249 135.994 97.3812" stroke="#3F3D56" stroke-width="2" stroke-miterlimit="10"/>
<path d="M143.364 79.8896C143.541 87.6932 143.445 95.4964 143.075 103.3L147.951 102.253C149.748 101.868 151.793 101.279 152.605 99.4174C153.362 97.6823 152.641 95.4918 151.381 94.1878C150.12 92.8837 148.44 92.2613 146.816 91.6741L144.154 90.7121" stroke="#3F3D56" stroke-width="2" stroke-miterlimit="10"/>
<path d="M169.642 88.4923C167.862 88.2121 166.046 87.944 164.277 88.304C162.508 88.6641 160.762 89.7579 159.947 91.5767C158.441 94.9361 160.748 99.0731 163.673 100.856C166.108 102.328 168.913 102.808 171.621 102.215" stroke="#3F3D56" stroke-width="2" stroke-miterlimit="10"/>
<path d="M130.501 61.7653C126.024 66.5458 121.548 66.5458 117.071 61.7653C115.255 59.7859 113.814 57.406 112.837 54.7715C111.86 52.1371 111.368 49.3037 111.389 46.4451V0H136.183V46.4452C136.205 49.3037 135.712 52.1371 134.735 54.7716C133.758 57.406 132.317 59.7859 130.501 61.7653V61.7653Z" fill="#E35073"/>
<path d="M269.132 226.724C269.132 270.201 246.378 285.38 218.305 285.38C217.655 285.38 217.005 285.37 216.359 285.354C215.059 285.322 213.767 285.253 212.495 285.152C187.159 283.117 167.479 267.157 167.479 226.724C167.479 184.889 214.549 132.093 218.095 128.178C218.095 128.177 218.095 128.176 218.095 128.176C218.095 128.175 218.095 128.174 218.096 128.174C218.096 128.173 218.097 128.173 218.097 128.173C218.098 128.172 218.099 128.172 218.099 128.172C218.235 128.018 218.305 127.944 218.305 127.944C218.305 127.944 269.132 183.253 269.132 226.724Z" fill="#E35073"/>
<path d="M216.453 278.729L235.043 249.23L216.406 281.969L216.359 285.354C215.059 285.322 213.768 285.253 212.495 285.152L214.497 241.659L214.483 241.319L214.516 241.261L214.708 237.149L196.024 204.33L214.764 234.067L214.811 234.938L216.322 202.077L200.328 168.164L216.518 196.312L218.095 128.178L218.099 127.944V128.172L217.837 181.898L233.761 160.598L217.772 186.526L217.351 215.949L232.222 187.711L217.29 220.28L217.056 236.638L238.636 197.332L216.972 242.345L216.453 278.729Z" fill="#3F3D56"/>
</g>
<defs>
<clipPath id="clip0">
<rect width="504" height="400" fill="white"/>
</clipPath>
</defs>
</svg>
